<svg width="16" height="16" viewBox="0 0 16 16" fill="none" xmlns="http://www.w3.org/2000/svg">
<path d="M8.66667 10.6666V3.99992C8.66667 3.63173 8.36819 3.33325 8 3.33325H2.66667C2.29848 3.33325 2 3.63173 2 3.99992V10.6666C2 11.0348 2.29848 11.3333 2.66667 11.3333H3.33333M8.66667 10.6666C8.66667 11.0348 8.36819 11.3333 8 11.3333H6M8.66667 10.6666L8.66667 5.33325C8.66667 4.96506 8.96514 4.66659 9.33333 4.66659H11.0572C11.234 4.66659 11.4036 4.73682 11.5286 4.86185L13.8047 7.13799C13.9298 7.26301 14 7.43258 14 7.60939V10.6666C14 11.0348 13.7015 11.3333 13.3333 11.3333H12.6667M8.66667 10.6666C8.66667 11.0348 8.96514 11.3333 9.33333 11.3333H10M3.33333 11.3333C3.33333 12.0696 3.93029 12.6666 4.66667 12.6666C5.40305 12.6666 6 12.0696 6 11.3333M3.33333 11.3333C3.33333 10.5969 3.93029 9.99992 4.66667 9.99992C5.40305 9.99992 6 10.5969 6 11.3333M10 11.3333C10 12.0696 10.597 12.6666 11.3333 12.6666C12.0697 12.6666 12.6667 12.0696 12.6667 11.3333M10 11.3333C10 10.5969 10.597 9.99992 11.3333 9.99992C12.0697 9.99992 12.6667 10.5969 12.6667 11.3333" stroke="#94A3B8" stroke-width="2"/>
</svg>
