<svg width="167" height="141" viewBox="0 0 167 141" fill="none" xmlns="http://www.w3.org/2000/svg">
<path d="M71.998 0.0496042C31.7509 -1.18473 -0.341083 20.7091 0.00273699 55.4073C0.318932 87.3175 14.4389 89.8975 28 117.576C47.9649 158.325 129.893 133.751 149.713 121.085C169.533 108.418 175.78 40.2916 149.713 34.224C105.375 23.9033 117.892 1.45713 71.998 0.0496042Z" fill="#F1F5F9"/>
<path fill-rule="evenodd" clip-rule="evenodd" d="M99.7801 53.1859C99.7801 52.4691 100.329 51.8879 101.007 51.8879H112.782C115.303 51.8879 117.603 53.4016 118.667 55.8078L118.67 55.8137L122.042 63.5427H123.97C124.647 63.5427 125.197 64.1238 125.197 64.8407C125.197 65.5576 124.647 66.1387 123.97 66.1387H107.396C106.719 66.1387 106.17 65.5576 106.17 64.8407V54.484H102.234V78.6828L122.743 78.5056V77.15C122.743 76.4331 123.292 75.852 123.97 75.852C124.647 75.852 125.197 76.4331 125.197 77.15V83.9465C125.197 86.4601 123.219 88.4414 120.861 88.4414H117.453C116.799 91.5009 114.154 93.7527 111.044 93.7527C107.876 93.7527 105.191 91.4169 104.601 88.271L73.5353 88.439C72.8826 91.4997 70.2367 93.7527 67.1258 93.7527C64.0157 93.7527 61.3704 91.5009 60.7169 88.4414H48.2268C47.5493 88.4414 47 87.8602 47 87.1434V80.4488C47 80.4478 47 80.4468 47 80.4458V80.1203C47 79.5141 47.3965 78.9887 47.9552 78.8545L73.3171 72.7628C73.9778 72.6041 74.6351 73.0422 74.7851 73.7412C74.9351 74.4403 74.5211 75.1357 73.8603 75.2944L58.1679 79.0636L92.2944 78.7687L93.2399 74.1687H90.0152C89.3376 74.1687 88.7883 73.5875 88.7883 72.8707C88.7883 72.1538 89.3376 71.5727 90.0152 71.5727H93.7735L93.7859 71.5124L93.7878 71.5032C94.0881 70.0919 95.281 69.1058 96.6494 69.1058H99.7801V53.1859ZM99.7801 71.7018H96.6494C96.4032 71.7018 96.2258 71.872 96.1822 72.0704C96.182 72.0714 96.1818 72.0723 96.1816 72.0733L95.977 73.0687C95.9693 73.1222 95.9585 73.1746 95.9447 73.2258L94.8099 78.747L99.7801 78.704V71.7018ZM49.4537 81.735V85.8454H60.6511C60.9265 84.1269 61.8242 82.637 63.0888 81.6172L49.4537 81.735ZM71.0758 81.5482C72.3855 82.5686 73.3179 84.0862 73.6002 85.8426L104.599 85.675C104.947 83.8003 106.039 82.2123 107.534 81.2331L71.0758 81.5482ZM114.46 81.1733C116.049 82.1756 117.2 83.8576 117.519 85.8454H120.861C121.93 85.8454 122.743 84.957 122.743 83.9465V81.1017L114.46 81.1733ZM108.623 54.484V63.5427H119.339L116.444 56.9076C116.444 56.9067 116.444 56.9059 116.443 56.905C115.793 55.4361 114.373 54.484 112.782 54.484H108.623ZM123.725 71.0473C124.018 71.0473 124.315 70.7939 124.315 70.4038C124.315 70.0137 124.018 69.7603 123.725 69.7603C123.432 69.7603 123.135 70.0137 123.135 70.4038C123.135 70.7939 123.432 71.0473 123.725 71.0473ZM121.862 70.4038C121.862 69.2908 122.729 68.4513 123.725 68.4513C124.721 68.4513 125.588 69.2908 125.588 70.4038C125.588 71.5168 124.721 72.3563 123.725 72.3563C122.729 72.3563 121.862 71.5168 121.862 70.4038ZM107.443 72.8707C107.443 72.1538 107.992 71.5727 108.669 71.5727H112.17C112.848 71.5727 113.397 72.1538 113.397 72.8707C113.397 73.5875 112.848 74.1687 112.17 74.1687H108.669C107.992 74.1687 107.443 73.5875 107.443 72.8707ZM67.1258 82.7776C64.8228 82.7776 63.0159 84.688 63.0159 86.9672C63.0159 89.2463 64.8228 91.1567 67.1258 91.1567C69.4289 91.1567 71.2358 89.2463 71.2358 86.9672C71.2358 84.688 69.4289 82.7776 67.1258 82.7776ZM111.044 82.7776C108.741 82.7776 106.934 84.688 106.934 86.9672C106.934 89.2463 108.741 91.1567 111.044 91.1567C113.347 91.1567 115.154 89.2463 115.154 86.9672C115.154 84.688 113.347 82.7776 111.044 82.7776Z" fill="#A0A7BB"/>
<path d="M47.5 43.0559C47.6435 43.7124 47.7153 44.0407 47.7972 44.3305C48.6511 47.3514 50.8741 49.7961 53.8005 50.9324C54.0812 51.0414 54.3875 51.1396 55 51.3359C51.2874 52.1292 48.4034 55.0565 47.6655 58.7805L47.5 59.6159L47.3957 59.0019C46.7445 55.1673 43.8087 52.1243 40 51.3359L40.176 51.2813C40.5492 51.1654 40.7357 51.1075 40.9074 51.0472C44.1592 49.9063 46.5945 47.1713 47.3521 43.8094C47.392 43.632 47.428 43.44 47.5 43.0559Z" fill="#A0A7BB"/>
<path d="M72 19.8721L72.0451 20.0782C72.7745 23.4142 73.1391 25.0822 73.9576 26.4661C74.6518 27.6399 75.5788 28.6593 76.6815 29.4616C77.9816 30.4076 79.6076 30.9287 82.8594 31.971L83 32.0161C80.5605 32.5373 79.3408 32.798 78.2995 33.2877C76.1463 34.3005 74.4248 36.0478 73.4443 38.2159C72.9701 39.2643 72.7276 40.4878 72.2428 42.9348L72 44.1601L71.8471 43.2595C71.4242 40.7697 71.2128 39.5248 70.7627 38.4571C69.7974 36.1673 68.0142 34.3188 65.7604 33.272C64.7096 32.784 63.473 32.528 61 32.0161L61.2581 31.9359C64.4087 30.9577 65.984 30.4685 67.2519 29.5872C68.5489 28.6856 69.6138 27.4895 70.3596 26.0971C71.0885 24.7359 71.3923 23.1146 72 19.8721Z" fill="#A0A7BB"/>
</svg>
