<svg width="167" height="127" viewBox="0 0 167 127" fill="none" xmlns="http://www.w3.org/2000/svg">
<path d="M71.998 0.0449313C31.7509 -1.07312 -0.341083 18.7583 0.00273699 50.1877C0.318932 79.0919 14.4389 81.4288 28 106.5C47.9649 143.41 129.893 121.151 149.713 109.678C169.533 98.2048 175.78 36.496 149.713 31C105.375 21.6516 117.892 1.31987 71.998 0.0449313Z" fill="#F1F5F9"/>
<path fill-rule="evenodd" clip-rule="evenodd" d="M99.7801 48.1757C99.7801 47.5264 100.329 47 101.007 47H112.782C115.303 47 117.603 48.371 118.667 50.5506L118.67 50.5559L122.042 57.5569H123.97C124.647 57.5569 125.197 58.0833 125.197 58.7326C125.197 59.3819 124.647 59.9083 123.97 59.9083H107.396C106.719 59.9083 106.17 59.3819 106.17 58.7326V49.3515H102.234V71.2707L122.743 71.1102V69.8823C122.743 69.2329 123.292 68.7065 123.97 68.7065C124.647 68.7065 125.197 69.2329 125.197 69.8823V76.0385C125.197 78.3153 123.219 80.11 120.861 80.11H117.453C116.799 82.8813 114.154 84.921 111.044 84.921C107.876 84.921 105.191 82.8052 104.601 79.9557L73.5353 80.1079C72.8826 82.8802 70.2367 84.921 67.1258 84.921C64.0157 84.921 61.3704 82.8813 60.7169 80.11H48.2268C47.5493 80.11 47 79.5836 47 78.9343V72.8704C47 72.8695 47 72.8685 47 72.8676V72.5728C47 72.0237 47.3965 71.5478 47.9552 71.4262L73.3171 65.9084C73.9778 65.7646 74.6351 66.1614 74.7851 66.7947C74.9351 67.4279 74.5211 68.0578 73.8603 68.2015L58.1679 71.6156L92.2944 71.3485L93.2399 67.1818H90.0152C89.3376 67.1818 88.7883 66.6554 88.7883 66.0061C88.7883 65.3568 89.3376 64.8304 90.0152 64.8304H93.7735L93.7859 64.7758L93.7878 64.7675C94.0881 63.4891 95.281 62.5959 96.6494 62.5959H99.7801V48.1757ZM99.7801 64.9473H96.6494C96.4032 64.9473 96.2258 65.1015 96.1822 65.2812C96.182 65.2821 96.1818 65.283 96.1816 65.2838L95.977 66.1855C95.9693 66.2339 95.9585 66.2814 95.9447 66.3278L94.8099 71.3288L99.7801 71.2899V64.9473ZM49.4537 74.0354V77.7585H60.6511C60.9265 76.202 61.8242 74.8524 63.0888 73.9287L49.4537 74.0354ZM71.0758 73.8661C72.3855 74.7905 73.3179 76.1651 73.6002 77.7561L104.599 77.6042C104.947 75.9061 106.039 74.4677 107.534 73.5808L71.0758 73.8661ZM114.46 73.5266C116.049 74.4345 117.2 75.958 117.519 77.7585H120.861C121.93 77.7585 122.743 76.9539 122.743 76.0385V73.4618L114.46 73.5266ZM108.623 49.3515V57.5569H119.339L116.444 51.5468C116.444 51.546 116.444 51.5452 116.443 51.5445C115.793 50.2139 114.373 49.3515 112.782 49.3515H108.623ZM123.725 64.3545C124.018 64.3545 124.315 64.1249 124.315 63.7716C124.315 63.4183 124.018 63.1887 123.725 63.1887C123.432 63.1887 123.135 63.4183 123.135 63.7716C123.135 64.1249 123.432 64.3545 123.725 64.3545ZM121.862 63.7716C121.862 62.7635 122.729 62.0031 123.725 62.0031C124.721 62.0031 125.588 62.7635 125.588 63.7716C125.588 64.7798 124.721 65.5402 123.725 65.5402C122.729 65.5402 121.862 64.7798 121.862 63.7716ZM107.443 66.0061C107.443 65.3568 107.992 64.8304 108.669 64.8304H112.17C112.848 64.8304 113.397 65.3568 113.397 66.0061C113.397 66.6554 112.848 67.1818 112.17 67.1818H108.669C107.992 67.1818 107.443 66.6554 107.443 66.0061ZM67.1258 74.9798C64.8228 74.9798 63.0159 76.7102 63.0159 78.7747C63.0159 80.8391 64.8228 82.5695 67.1258 82.5695C69.4289 82.5695 71.2358 80.8391 71.2358 78.7747C71.2358 76.7102 69.4289 74.9798 67.1258 74.9798ZM111.044 74.9798C108.741 74.9798 106.934 76.7102 106.934 78.7747C106.934 80.8391 108.741 82.5695 111.044 82.5695C113.347 82.5695 115.154 80.8391 115.154 78.7747C115.154 76.7102 113.347 74.9798 111.044 74.9798Z" fill="#A0A7BB"/>
<path d="M47.5 39C47.5197 39.0815 47.5295 39.1223 47.539 39.1603C48.3946 42.5867 50.994 45.3078 54.3778 46.319C54.4154 46.3303 54.4556 46.342 54.5362 46.3653L55 46.5C51.2871 47.2186 48.358 50.0778 47.5498 53.7722L47.5 54C46.7861 50.1924 43.8076 47.2139 40 46.5L40.6892 46.3062C44.1458 45.334 46.7725 42.5163 47.5 39Z" fill="#A0A7BB"/>
<path d="M72 18C72.6454 20.6736 72.968 22.0104 73.5799 23.1475C74.4344 24.7355 75.7025 26.0628 77.2498 26.989C78.3577 27.6522 79.6784 28.0357 82.3197 28.8025L83 29C80.5821 29.468 79.3732 29.702 78.3347 30.1625C76.1426 31.1347 74.3729 32.8621 73.348 35.0301C72.8625 36.0571 72.5994 37.2601 72.0731 39.6659L72 40C71.543 37.5626 71.3145 36.344 70.8593 35.3018C69.8506 32.9926 68.0074 31.1494 65.6982 30.1407C64.656 29.6855 63.4374 29.457 61 29L62.0108 28.7157C64.3318 28.0629 65.4922 27.7366 66.4799 27.1994C68.3845 26.1637 69.901 24.5369 70.8007 22.5644C71.2673 21.5415 71.5115 20.361 72 18Z" fill="#A0A7BB"/>
</svg>
