<svg width="16" height="16" viewBox="0 0 16 16" fill="none" xmlns="http://www.w3.org/2000/svg">
<path d="M2.66602 6.76192C2.66602 3.76392 5.05402 1.33325 7.99935 1.33325C10.9447 1.33325 13.3327 3.76392 13.3327 6.76192C13.3327 9.73659 11.6307 13.2086 8.97468 14.4493C8.6694 14.5922 8.33644 14.6663 7.99935 14.6663C7.66226 14.6663 7.32929 14.5922 7.02402 14.4493C4.36802 13.2079 2.66602 9.73659 2.66602 6.76259V6.76192Z" stroke="#94A3B8" stroke-width="2"/>
<path d="M8 8.6665C9.10457 8.6665 10 7.77107 10 6.6665C10 5.56193 9.10457 4.6665 8 4.6665C6.89543 4.6665 6 5.56193 6 6.6665C6 7.77107 6.89543 8.6665 8 8.6665Z" stroke="#94A3B8" stroke-width="2"/>
</svg>
